<svg width="17" height="15" viewBox="0 0 17 15" fill="none" xmlns="http://www.w3.org/2000/svg">
<path d="M2.78787 14.2121C2.90503 14.3293 3.09498 14.3293 3.21213 14.2121L5.12132 12.3029C5.23848 12.1858 5.23848 11.9958 5.12132 11.8787C5.00416 11.7615 4.81421 11.7615 4.69706 11.8787L3 13.5757L1.30294 11.8787C1.18579 11.7615 0.995837 11.7615 0.87868 11.8787C0.761522 11.9958 0.761523 12.1858 0.87868 12.3029L2.78787 14.2121ZM2.7 7L2.7 14L3.3 14L3.3 7L2.7 7Z" fill="#3D3A43"/>
<path d="M2.78787 0.787868C2.90503 0.670711 3.09498 0.670711 3.21213 0.787868L5.12132 2.69706C5.23848 2.81421 5.23848 3.00416 5.12132 3.12132C5.00416 3.23848 4.81421 3.23848 4.69706 3.12132L3 1.42426L1.30294 3.12132C1.18579 3.23848 0.995837 3.23848 0.87868 3.12132C0.761523 3.00416 0.761523 2.81421 0.87868 2.69706L2.78787 0.787868ZM2.7 7L2.7 1L3.3 1L3.3 7L2.7 7Z" fill="#3D3A43"/>
<path d="M13.0371 7.6598C13.6463 8.35327 14.2026 9.04673 14.7027 9.74128C15.6825 11.1012 16.4472 12.4633 16.9776 13.8275C17.0435 13.9971 16.9592 14.1872 16.7896 14.252C16.62 14.3169 16.4299 14.2337 16.3651 14.0641C15.8553 12.7528 15.1175 11.4404 14.1702 10.1247C13.7209 9.50148 13.224 8.87715 12.6828 8.25173C12.8892 8.78209 12.9691 9.32325 12.8319 9.80933C12.5651 10.7566 11.634 10.8841 10.8012 10.1291C9.87009 11.0224 8.89362 10.6022 8.71107 9.6149C8.55229 8.75509 9.0254 7.76566 9.68214 6.94257C8.82017 7.60795 7.73568 8.10807 6.83159 7.86071C5.8832 7.60147 5.74818 6.67037 6.49782 5.83216C5.59804 4.90862 6.01066 3.92783 6.99685 3.7388C7.86962 3.57138 8.87958 4.05529 9.71563 4.72175C9.03512 3.85438 8.51664 2.74937 8.76832 1.83123C9.02756 0.882845 9.95866 0.747825 10.7958 1.49746C11.7204 0.597682 12.7001 1.01138 12.8892 1.99758C13.0609 2.89411 12.5446 3.93647 11.849 4.7844C12.7358 4.08986 13.884 3.55085 14.8226 3.82305C15.7678 4.09634 15.8888 5.02852 15.1283 5.85593C16.0151 6.79243 15.5874 7.76782 14.6001 7.9428C14.1022 8.03138 13.5621 7.90716 13.0371 7.6598Z" fill="#4F4F4F"/>
</svg>
